<svg xmlns="http://www.w3.org/2000/svg" xmlns:xlink="http://www.w3.org/1999/xlink" viewBox="0 0 220.83 239.54"><defs><style>.a,.c,.d,.e,.k{fill:none;}.a,.b{stroke:#c7b29e;}.a,.b,.c,.d,.e,.h,.i,.j,.k{stroke-miterlimit:10;}.a,.b,.c,.d,.e{stroke-width:6px;}.b,.l{fill:#231f20;}.c,.j,.k{stroke:#231f20;}.d{stroke:#008142;}.e{stroke:#00addc;}.f,.j{fill:#fff;}.g{fill:url(#a);}.h{stroke:#fff;stroke-width:3px;fill:url(#b);}.i{fill:#8c959d;stroke:#8c959d;}.i,.j{stroke-width:2px;}.k{stroke-width:4px;}</style><radialGradient id="a" cx="110.42" cy="110.62" r="103.67" gradientUnits="userSpaceOnUse"><stop offset="0.53" stop-color="#fff"/><stop offset="0.58" stop-color="#f5e6dd"/><stop offset="0.64" stop-color="#e9c8b3"/><stop offset="0.71" stop-color="#dfae91"/><stop offset="0.78" stop-color="#d89b76"/><stop offset="0.85" stop-color="#d28d63"/><stop offset="0.92" stop-color="#cf8558"/><stop offset="1" stop-color="#ce8254"/></radialGradient><radialGradient id="b" cx="110.22" cy="113.89" r="53.33" gradientUnits="userSpaceOnUse"><stop offset="0" stop-color="#fff"/><stop offset="0.05" stop-color="#fde8e8"/><stop offset="0.18" stop-color="#f8b6b7"/><stop offset="0.31" stop-color="#f48c8d"/><stop offset="0.44" stop-color="#f16a6b"/><stop offset="0.58" stop-color="#ee4f50"/><stop offset="0.71" stop-color="#ec3c3d"/><stop offset="0.85" stop-color="#eb3132"/><stop offset="1" stop-color="#eb2d2e"/></radialGradient></defs><title>geodeadlines_logo</title><path class="a" d="M192.58,299.09V205.45l-46.8,81.05A106.84,106.84,0,0,0,192.58,299.09Z" transform="translate(-86 -81.3)"/><path class="b" d="M192.58,176.83V84.41a106.71,106.71,0,0,0-46.25,12.3Z" transform="translate(-86 -81.3)"/><path class="c" d="M200.25,84.41v92.42l46.26-80.12A106.8,106.8,0,0,0,200.25,84.41Z" transform="translate(-86 -81.3)"/><path class="c" d="M291.06,242.58a107.55,107.55,0,0,0,.5-100.72l-87.48,50.5Z" transform="translate(-86 -81.3)"/><path class="d" d="M101.27,141.86a107.55,107.55,0,0,0,.5,100.72l87-50.22Z" transform="translate(-86 -81.3)"/><path class="e" d="M184.89,203.45,105.64,249.2a108,108,0,0,0,33.52,33.44Z" transform="translate(-86 -81.3)"/><path class="c" d="M208,203.45l45.72,79.19a108,108,0,0,0,33.52-33.44Z" transform="translate(-86 -81.3)"/><path class="c" d="M200.25,205.45v93.64a106.84,106.84,0,0,0,46.8-12.59Z" transform="translate(-86 -81.3)"/><path class="e" d="M187,182.5l-47.32-82a107.9,107.9,0,0,0-34.6,34.67Z" transform="translate(-86 -81.3)"/><path class="c" d="M205.83,182.5l81.92-47.3a107.9,107.9,0,0,0-34.6-34.67Z" transform="translate(-86 -81.3)"/><circle class="f" cx="110.22" cy="110.72" r="106.62"/><circle class="g" cx="110.42" cy="110.62" r="103.67"/><circle class="h" cx="110.22" cy="113.89" r="53.33"/><path class="f" d="M196.44,85.61V298.83a106.61,106.61,0,0,0,0-213.22Z" transform="translate(-86 -81.3)"/><line class="f" x1="72.33" y1="28.52" x2="194.17" y2="239.54"/><line class="i" x1="184.37" y1="153.27" x2="198.92" y2="161.66"/><rect class="i" x="277.55" y="230.37" width="0.18" height="16.8" transform="translate(-153.96 278.53) rotate(-60)"/><line class="j" x1="153.09" y1="35.79" x2="161.49" y2="21.25"/><rect class="i" x="234.89" y="109.73" width="16.8" height="0.18" transform="translate(-59.46 184.31) rotate(-60)"/><line class="i" x1="186.89" y1="67.18" x2="201.44" y2="58.79"/><rect class="i" x="271.77" y="144.19" width="16.8" height="0.18" transform="translate(-120.61 78.11) rotate(-30)"/><line class="i" x1="153.09" y1="184.87" x2="161.49" y2="199.42"/><rect class="i" x="243.2" y="265.05" width="0.18" height="16.8" transform="translate(-190.13 76.98) rotate(-30)"/><line class="i" x1="197.28" y1="110.62" x2="214.08" y2="110.62"/><rect class="i" x="197.28" y="110.52" width="16.8" height="0.18"/><line class="k" x1="108.42" y1="114.89" x2="162.85" y2="62.78"/><polygon class="l" points="164.02 72.94 160.88 64.66 152.75 61.17 172.33 53.7 164.02 72.94"/><line class="k" x1="109.78" y1="113.43" x2="145.21" y2="152.26"/><polygon class="l" points="135.03 153.19 143.38 150.25 147.06 142.21 154.06 161.96 135.03 153.19"/></svg>